#!OML:ASF F:\VICON\USERDATA\INSTALL\rory3\rory3.ASF
:FULLY-SPECIFIED
:DEGREES
443
root -6.08298 18.1372 -15.4346 11.4154 11.3869 3.99766
lowerback -8.60795 -1.23296 -3.7997
upperback -2.31363 -1.25203 -1.61837
thorax 2.47097 -0.632223 0.328805
lowerneck -17.7328 -0.418329 2.42368
upperneck 22.3237 -0.477963 -3.12311
head 10.0216 -0.379066 -1.57016
rclavicle -2.56556e-015 6.36111e-015
rhumerus -30.6052 18.5413 -90.11
rradius 40.8891
rwrist -2.82534
rhand -20.3999 10.558
rfingers 7.12502
rthumb 5.9537 -19.3384
lclavicle -2.56556e-015 6.36111e-015
lhumerus -36.2341 -11.3084 85.9233
lradius 31.2306
lwrist 10.2933
lhand -12.0168 26.1939
lfingers 7.12502
lthumb 14.0408 55.6997
rfemur -16.66 -5.16761 13.9449
rtibia 41.0422
rfoot -23.4513 3.47712
rtoes -10.4177
lfemur -19.5446 6.93041 -25.1775
ltibia 31.1444
lfoot -18.9896 -12.6436
ltoes -11.8493
444
root -6.08278 18.1416 -15.4386 11.4511 12.2489 3.91123
lowerback -8.58008 -1.2245 -3.71691
upperback -2.26723 -1.24784 -1.60291
thorax 2.5022 -0.630521 0.298855
lowerneck -17.7666 -0.308192 2.55955
upperneck 22.2254 -0.340769 -3.21394
head 9.99663 -0.314673 -1.6051
rclavicle -1.76049e-014 -2.78299e-015
rhumerus -30.5666 18.8469 -90.4302
rradius 41.027
rwrist -2.92457
rhand -20.4163 10.545
rfingers 7.12502
rthumb 5.93795 -19.3518
lclavicle -1.76049e-014 -2.78299e-015
lhumerus -35.9393 -11.0232 85.7148
lradius 31.3429
lwrist 10.127
lhand -11.6967 26.1683
lfingers 7.12502
lthumb 14.3492 55.6524
rfemur -16.6111 -4.26172 14.0022
rtibia 40.5983
rfoot -23.5025 3.98879
rtoes -10.8719
lfemur -19.5745 6.70583 -24.9491
ltibia 31.0409
lfoot -18.6143 -13.4701
ltoes -10.4005
445
root -6.08269 18.1449 -15.4427 11.4721 13.1059 3.84422
lowerback -8.51793 -1.15394 -3.57732
upperback -2.25727 -1.16888 -1.59153
thorax 2.47315 -0.590233 0.242118
lowerneck -17.7054 -0.252995 2.45051
upperneck 22.0987 -0.252228 -3.12865
head 9.94345 -0.272055 -1.54236
rclavicle 3.88251e-015 3.18055e-015
rhumerus -30.6346 18.9456 -90.6204
rradius 41.1733
rwrist -3.05872
rhand -20.205 10.5973
rfingers 7.12502
rthumb 6.14192 -19.2937
lclavicle 3.88251e-015 3.18055e-015
lhumerus -35.8144 -11.1741 85.7886
lradius 31.6714
lwrist 10.3166
lhand -11.4472 26.2754
lfingers 7.12502
lthumb 14.5896 55.7423
rfemur -16.5628 -3.41612 14.0362
rtibia 40.1634
rfoot -23.6037 4.57027
rtoes -10.5382
lfemur -19.5966 6.60264 -24.7633
ltibia 30.9138
lfoot -18.2881 -14.3124
ltoes -9.35534
446
root -6.08366 18.1491 -15.4457 11.5437 14.0861 3.79012
lowerback -8.52197 -1.09453 -3.42359
upperback -2.28346 -1.10294 -1.59418
thorax 2.44351 -0.555933 0.160634
lowerneck -17.6158 -0.126707 2.46743
upperneck 22.0921 -0.0839998 -3.09602
head 9.92994 -0.187431 -1.51007
rclavicle 4.54099e-015 1.39149e-015
rhumerus -30.8032 18.8895 -90.7669
rradius 41.3707
rwrist -3.07609
rhand -19.8464 10.6599
rfingers 7.12502
rthumb 6.48814 -19.2207
lclavicle 4.54099e-015 1.39149e-015
lhumerus -35.6886 -11.3583 85.8738
lradius 31.9114
lwrist 10.3849
lhand -11.2327 26.4581
lfingers 7.12502
lthumb 14.7963 55.9099
rfemur -16.5326 -2.75538 14.091
rtibia 39.7198
rfoot -23.7941 5.12488
rtoes -10.1476
lfemur -19.6731 6.39647 -24.5766
ltibia 30.7923
lfoot -17.968 -15.11
ltoes -9.06141
447
root -6.08762 18.1554 -15.4469 11.6493 15.0627 3.83988
lowerback -8.56345 -1.08819 -3.45234
upperback -2.26184 -1.08651 -1.65517
thorax 2.48776 -0.548125 0.114437
lowerneck -17.6688 0.0163522 2.68132
upperneck 22.1092 0.0602406 -3.11398
head 9.95066 -0.104175 -1.53316
rclavicle 2.27608e-014 6.95746e-015
rhumerus -30.8362 18.9299 -91.0252
rradius 41.5274
rwrist -3.19311
rhand -19.4418 10.7722
rfingers 7.12502
rthumb 6.87868 -19.096
lclavicle 2.27608e-014 6.95746e-015
lhumerus -35.5002 -11.6994 85.8843
lradius 32.164
lwrist 10.6873
lhand -11.128 26.4525
lfingers 7.12502
lthumb 14.8972 55.8968
rfemur -16.5024 -2.14743 14.0499
rtibia 39.2519
rfoot -24.1484 5.5353
rtoes -10.3398
lfemur -19.7835 6.28287 -24.5121
ltibia 30.6912
lfoot -17.6363 -15.983
ltoes -8.37351
448
root -6.09313 18.1623 -15.4501 11.78 15.9474 3.86145
lowerback -8.5916 -1.07217 -3.52559
upperback -2.26268 -1.05648 -1.65826
thorax 2.50284 -0.533235 0.154985
lowerneck -17.7622 0.111802 2.81667
upperneck 22.117 0.17278 -3.18671
head 9.97489 -0.049147 -1.56673
rclavicle -2.90226e-014 -8.94531e-015
rhumerus -30.9637 19.1324 -91.2874
rradius 41.7606
rwrist -3.27882
rhand -19.363 10.6861
rfingers 7.12502
rthumb 6.95472 -19.1797
lclavicle -2.90226e-014 -8.94531e-015
lhumerus -35.3738 -12.0944 85.995
lradius 32.508
lwrist 11.0887
lhand -10.9013 26.2476
lfingers 7.12502
lthumb 15.1156 55.6757
rfemur -16.521 -1.41438 14.0241
rtibia 38.7486
rfoot -24.4111 5.95886
rtoes -9.51573
lfemur -19.9123 6.05129 -24.416
ltibia 30.618
lfoot -17.406 -16.6097
ltoes -7.65362
449
root -6.09604 18.1684 -15.4551 11.9311 16.7642 3.90726
lowerback -8.60943 -1.02076 -3.53283
upperback -2.29303 -0.985398 -1.70054
thorax 2.47862 -0.496871 0.123055
lowerneck -17.9029 0.266706 3.06455
upperneck 22.2117 0.355535 -3.3353
head 10.0421 0.0388129 -1.63768
rclavicle 3.59179e-014 6.95746e-015
rhumerus -31.269 19.4505 -91.6658
rradius 42.1327
rwrist -3.29266
rhand -19.744 10.2669
rfingers 7.12502
rthumb 6.58692 -19.6106
lclavicle 3.59179e-014 6.95746e-015
lhumerus -35.248 -12.4272 86.0635
lradius 32.8605
lwrist 11.3767
lhand -10.5883 26.312
lfingers 7.12502
lthumb 15.4171 55.7171
rfemur -16.5831 -0.752621 13.9598
rtibia 38.2114
rfoot -24.5575 6.34367
rtoes -8.46455
lfemur -20.0379 5.75701 -24.355
ltibia 30.5563
lfoot -17.2212 -17.1493
ltoes -6.93591
450
root -6.09682 18.1734 -15.4627 12.0518 17.7316 3.88505
lowerback -8.60812 -1.04112 -3.42313
upperback -2.28399 -1.02104 -1.70232
thorax 2.48649 -0.51411 0.0558805
lowerneck -18.0625 0.402049 3.2478
upperneck 22.2767 0.512253 -3.42309
head 10.102 0.116005 -1.67947
rclavicle 1.62755e-014 -4.37326e-015
rhumerus -31.4676 19.9594 -92.0353
rradius 42.4859
rwrist -3.44234
rhand -20.2053 9.80989
rfingers 7.12502
rthumb 6.14165 -20.0811
lclavicle 1.62755e-014 -4.37326e-015
lhumerus -35.0311 -12.5726 86.0798
lradius 33.2493
lwrist 11.5038
lhand -10.262 26.444
lfingers 7.12502
lthumb 15.7313 55.8246
rfemur -16.6242 -0.253319 13.9703
rtibia 37.6432
rfoot -24.5246 6.76993
rtoes -8.67966
lfemur -20.209 5.37443 -24.2245
ltibia 30.5025
lfoot -17.0542 -17.6253
ltoes -6.63595
451
root -6.0973 18.1772 -15.4707 12.1217 18.9732 3.88677
lowerback -8.59665 -1.1499 -3.33619
upperback -2.21708 -1.17205 -1.6699
thorax 2.55249 -0.590063 0.0238067
lowerneck -18.0744 0.460149 3.37436
upperneck 22.1107 0.579882 -3.52691
head 10.048 0.145527 -1.72592
rclavicle -6.44559e-014 7.95139e-016
rhumerus -31.5822 20.3701 -92.2642
rradius 42.8208
rwrist -3.53098
rhand -20.3122 9.48359
rfingers 7.12502
rthumb 6.0384 -20.4104
lclavicle -6.44559e-014 7.95139e-016
lhumerus -34.7767 -12.8491 86.2248
lradius 33.6754
lwrist 11.8275
lhand -9.70803 26.9247
lfingers 7.12502
lthumb 16.2648 56.2625
rfemur -16.504 0.13408 14.0112
rtibia 37.0634
rfoot -24.4555 7.21338
rtoes -8.97379
lfemur -20.3205 4.83169 -24.0747
ltibia 30.4307
lfoot -16.8606 -18.1723
ltoes -6.63788
